%TF.GenerationSoftware,KiCad,Pcbnew,8.0.3*%
%TF.CreationDate,2024-06-28T12:15:49-07:00*%
%TF.ProjectId,360LPNeckPCB,3336304c-504e-4656-936b-5043422e6b69,rev?*%
%TF.SameCoordinates,Original*%
%TF.FileFunction,Copper,L1,Top*%
%TF.FilePolarity,Positive*%
%FSLAX46Y46*%
G04 Gerber Fmt 4.6, Leading zero omitted, Abs format (unit mm)*
G04 Created by KiCad (PCBNEW 8.0.3) date 2024-06-28 12:15:49*
%MOMM*%
%LPD*%
G01*
G04 APERTURE LIST*
%TA.AperFunction,SMDPad,CuDef*%
%ADD10C,2.500000*%
%TD*%
%TA.AperFunction,ComponentPad*%
%ADD11O,1.500000X2.500000*%
%TD*%
%TA.AperFunction,ComponentPad*%
%ADD12R,1.500000X2.500000*%
%TD*%
%TA.AperFunction,Conductor*%
%ADD13C,0.300000*%
%TD*%
G04 APERTURE END LIST*
D10*
%TO.P,J4,1,Pin_1*%
%TO.N,Net-(J1-Pin_3)*%
X27450000Y-22700000D03*
%TD*%
D11*
%TO.P,J1,1,Pin_1*%
%TO.N,Net-(J1-Pin_1)*%
X33000000Y-15500000D03*
%TO.P,J1,2,Pin_2*%
%TO.N,Net-(J1-Pin_2)*%
X31000000Y-15500000D03*
%TO.P,J1,3,Pin_3*%
%TO.N,Net-(J1-Pin_3)*%
X29000000Y-15500000D03*
%TO.P,J1,4,Pin_4*%
%TO.N,Net-(J1-Pin_4)*%
X27000000Y-15500000D03*
%TO.P,J1,5,Pin_5*%
%TO.N,Net-(J1-Pin_5)*%
X25000000Y-15500000D03*
%TO.P,J1,6,Pin_6*%
%TO.N,Net-(J1-Pin_6)*%
X23000000Y-15500000D03*
%TO.P,J1,7,Pin_7*%
%TO.N,Net-(J1-Pin_7)*%
X21000000Y-15500000D03*
D12*
%TO.P,J1,8,Pin_8*%
%TO.N,Net-(J1-Pin_8)*%
X19000000Y-15500000D03*
%TD*%
D10*
%TO.P,J9,1,Pin_1*%
%TO.N,Net-(J1-Pin_8)*%
X20350000Y-26250000D03*
%TD*%
%TO.P,J5,1,Pin_1*%
%TO.N,Net-(J1-Pin_4)*%
X27450000Y-26250000D03*
%TD*%
%TO.P,J2,1,Pin_1*%
%TO.N,Net-(J1-Pin_1)*%
X31000000Y-22700000D03*
%TD*%
%TO.P,J7,1,Pin_1*%
%TO.N,Net-(J1-Pin_6)*%
X23900000Y-26250000D03*
%TD*%
%TO.P,J3,1,Pin_1*%
%TO.N,Net-(J1-Pin_2)*%
X31000000Y-26250000D03*
%TD*%
%TO.P,J8,1,Pin_1*%
%TO.N,Net-(J1-Pin_7)*%
X20350000Y-22700000D03*
%TD*%
%TO.P,J6,1,Pin_1*%
%TO.N,Net-(J1-Pin_5)*%
X23900000Y-22700000D03*
%TD*%
D13*
%TO.N,Net-(J1-Pin_1)*%
X33000000Y-15500000D02*
X33000000Y-17700000D01*
X33000000Y-17700000D02*
X31000000Y-19700000D01*
X31000000Y-19700000D02*
X31000000Y-22750000D01*
%TO.N,Net-(J1-Pin_2)*%
X33600000Y-26250000D02*
X31000000Y-26250000D01*
X34350000Y-14350000D02*
X34350000Y-25500000D01*
X31000000Y-13900000D02*
X33900000Y-13900000D01*
X34350000Y-25500000D02*
X33600000Y-26250000D01*
X33900000Y-13900000D02*
X34350000Y-14350000D01*
X31000000Y-15500000D02*
X31000000Y-13900000D01*
%TO.N,Net-(J1-Pin_4)*%
X35200000Y-14450000D02*
X35200000Y-26700000D01*
X35200000Y-26700000D02*
X32950000Y-28950000D01*
X28250000Y-28950000D02*
X27450000Y-28150000D01*
X33950000Y-13200000D02*
X35200000Y-14450000D01*
X32950000Y-28950000D02*
X28250000Y-28950000D01*
X27450000Y-28150000D02*
X27450000Y-26250000D01*
X27750000Y-13200000D02*
X33950000Y-13200000D01*
X27000000Y-13950000D02*
X27750000Y-13200000D01*
X27000000Y-15500000D02*
X27000000Y-13950000D01*
%TO.N,Net-(J1-Pin_3)*%
X29000000Y-15500000D02*
X29000000Y-17900000D01*
X29000000Y-17900000D02*
X27450000Y-19450000D01*
X27450000Y-19450000D02*
X27450000Y-22700000D01*
%TO.N,Net-(J1-Pin_6)*%
X23000000Y-15500000D02*
X23000000Y-13850000D01*
X19200000Y-28750000D02*
X23150000Y-28750000D01*
X22500000Y-13350000D02*
X18300000Y-13350000D01*
X23000000Y-13850000D02*
X22500000Y-13350000D01*
X18300000Y-13350000D02*
X16650000Y-15000000D01*
X16650000Y-15000000D02*
X16650000Y-26200000D01*
X23150000Y-28750000D02*
X23900000Y-28000000D01*
X23900000Y-28000000D02*
X23900000Y-26250000D01*
X16650000Y-26200000D02*
X19200000Y-28750000D01*
%TO.N,Net-(J1-Pin_8)*%
X17850000Y-24800000D02*
X19300000Y-26250000D01*
X17850000Y-18900000D02*
X17850000Y-24800000D01*
X19000000Y-17750000D02*
X17850000Y-18900000D01*
X19300000Y-26250000D02*
X20350000Y-26250000D01*
X19000000Y-15500000D02*
X19000000Y-17750000D01*
%TO.N,Net-(J1-Pin_5)*%
X25000000Y-18100000D02*
X24000000Y-19100000D01*
X25000000Y-15500000D02*
X25000000Y-18100000D01*
X24000000Y-19100000D02*
X24000000Y-22600000D01*
X24000000Y-22600000D02*
X23900000Y-22700000D01*
%TO.N,Net-(J1-Pin_7)*%
X20550000Y-22500000D02*
X20350000Y-22700000D01*
X21000000Y-15500000D02*
X21000000Y-18300000D01*
X21000000Y-18300000D02*
X20550000Y-18750000D01*
X20350000Y-22700000D02*
X20350000Y-22750000D01*
X20550000Y-18750000D02*
X20550000Y-22500000D01*
%TD*%
%TA.AperFunction,Conductor*%
%TO.N,Net-(J1-Pin_6)*%
G36*
X23906676Y-26255307D02*
G01*
X24763453Y-27118566D01*
X24766849Y-27126852D01*
X24764121Y-27134318D01*
X23674146Y-28436388D01*
X23666207Y-28440532D01*
X23657664Y-28437850D01*
X23656901Y-28437151D01*
X23455296Y-28235546D01*
X23452933Y-28232149D01*
X22945877Y-27126139D01*
X22802081Y-26812486D01*
X22801750Y-26803538D01*
X22807474Y-26797152D01*
X23893132Y-26253088D01*
X23902062Y-26252446D01*
X23906676Y-26255307D01*
G37*
%TD.AperFunction*%
%TD*%
%TA.AperFunction,Conductor*%
%TO.N,Net-(J1-Pin_8)*%
G36*
X20089535Y-25037780D02*
G01*
X20094015Y-25044746D01*
X20348931Y-26242363D01*
X20347301Y-26251168D01*
X20343306Y-26254949D01*
X19291816Y-26857779D01*
X19282935Y-26858921D01*
X19276402Y-26854324D01*
X18322415Y-25486976D01*
X18320491Y-25478230D01*
X18323735Y-25472010D01*
X18526210Y-25269535D01*
X18532756Y-25266238D01*
X20080848Y-25035610D01*
X20089535Y-25037780D01*
G37*
%TD.AperFunction*%
%TD*%
%TA.AperFunction,Conductor*%
%TO.N,Net-(J1-Pin_5)*%
G36*
X24151057Y-20472417D02*
G01*
X24153239Y-20475438D01*
X24926642Y-22014965D01*
X24927294Y-22023896D01*
X24922606Y-22029999D01*
X23907279Y-22696223D01*
X23898482Y-22697897D01*
X23893334Y-22695399D01*
X22950288Y-21903105D01*
X22946158Y-21895160D01*
X22947940Y-21887870D01*
X23846552Y-20474412D01*
X23853883Y-20469270D01*
X23856426Y-20468990D01*
X24142784Y-20468990D01*
X24151057Y-20472417D01*
G37*
%TD.AperFunction*%
%TD*%
%TA.AperFunction,Conductor*%
%TO.N,Net-(J1-Pin_2)*%
G36*
X31732431Y-25255051D02*
G01*
X33243993Y-26096655D01*
X33249553Y-26103672D01*
X33250000Y-26106876D01*
X33250000Y-26393123D01*
X33246573Y-26401396D01*
X33243992Y-26403345D01*
X31732432Y-27244947D01*
X31723536Y-27245978D01*
X31717265Y-27241589D01*
X31003970Y-26256861D01*
X31001893Y-26248153D01*
X31003969Y-26243139D01*
X31717267Y-25258408D01*
X31724893Y-25253721D01*
X31732431Y-25255051D01*
G37*
%TD.AperFunction*%
%TD*%
%TA.AperFunction,Conductor*%
%TO.N,Net-(J1-Pin_7)*%
G36*
X20700655Y-20472417D02*
G01*
X20703082Y-20475956D01*
X21405958Y-22064730D01*
X21406171Y-22073683D01*
X21401212Y-22079536D01*
X20357352Y-22696653D01*
X20348487Y-22697913D01*
X20343619Y-22695320D01*
X19427927Y-21880164D01*
X19424026Y-21872103D01*
X19426110Y-21864731D01*
X20117372Y-20874041D01*
X20396508Y-20473995D01*
X20404052Y-20469171D01*
X20406103Y-20468990D01*
X20692382Y-20468990D01*
X20700655Y-20472417D01*
G37*
%TD.AperFunction*%
%TD*%
%TA.AperFunction,Conductor*%
%TO.N,Net-(J1-Pin_4)*%
G36*
X27456704Y-26253480D02*
G01*
X28512171Y-26849783D01*
X28517689Y-26856835D01*
X28516820Y-26865321D01*
X27790961Y-28276366D01*
X27788830Y-28279287D01*
X27587567Y-28480550D01*
X27579294Y-28483977D01*
X27571021Y-28480550D01*
X27569908Y-28479263D01*
X26541989Y-27098233D01*
X26539799Y-27089550D01*
X26543452Y-27082638D01*
X27443029Y-26255055D01*
X27451436Y-26251977D01*
X27456704Y-26253480D01*
G37*
%TD.AperFunction*%
%TD*%
%TA.AperFunction,Conductor*%
%TO.N,Net-(J1-Pin_3)*%
G36*
X27601453Y-20472417D02*
G01*
X27603361Y-20474925D01*
X28444867Y-21960966D01*
X28445962Y-21969853D01*
X28441590Y-21976177D01*
X27456904Y-22695953D01*
X27448203Y-22698068D01*
X27443096Y-22695953D01*
X26458409Y-21976177D01*
X26453752Y-21968528D01*
X26455131Y-21960967D01*
X27296639Y-20474924D01*
X27303698Y-20469414D01*
X27306820Y-20468990D01*
X27593180Y-20468990D01*
X27601453Y-20472417D01*
G37*
%TD.AperFunction*%
%TD*%
%TA.AperFunction,Conductor*%
%TO.N,Net-(J1-Pin_1)*%
G36*
X31151453Y-20472417D02*
G01*
X31153361Y-20474925D01*
X31994867Y-21960966D01*
X31995962Y-21969853D01*
X31991590Y-21976177D01*
X31006904Y-22695953D01*
X30998203Y-22698068D01*
X30993096Y-22695953D01*
X30008409Y-21976177D01*
X30003752Y-21968528D01*
X30005131Y-21960967D01*
X30846639Y-20474924D01*
X30853698Y-20469414D01*
X30856820Y-20468990D01*
X31143180Y-20468990D01*
X31151453Y-20472417D01*
G37*
%TD.AperFunction*%
%TD*%
M02*
