%TF.GenerationSoftware,KiCad,Pcbnew,8.0.3*%
%TF.CreationDate,2024-06-28T12:15:49-07:00*%
%TF.ProjectId,360LPNeckPCB,3336304c-504e-4656-936b-5043422e6b69,rev?*%
%TF.SameCoordinates,Original*%
%TF.FileFunction,Legend,Top*%
%TF.FilePolarity,Positive*%
%FSLAX46Y46*%
G04 Gerber Fmt 4.6, Leading zero omitted, Abs format (unit mm)*
G04 Created by KiCad (PCBNEW 8.0.3) date 2024-06-28 12:15:49*
%MOMM*%
%LPD*%
G01*
G04 APERTURE LIST*
%ADD10C,0.120000*%
G04 APERTURE END LIST*
D10*
X19282518Y-29596902D02*
X20164661Y-29596902D01*
X20164661Y-29596902D02*
X19689661Y-30054045D01*
X19689661Y-30054045D02*
X19893232Y-30054045D01*
X19893232Y-30054045D02*
X20028947Y-30111188D01*
X20028947Y-30111188D02*
X20096804Y-30168331D01*
X20096804Y-30168331D02*
X20164661Y-30282617D01*
X20164661Y-30282617D02*
X20164661Y-30568331D01*
X20164661Y-30568331D02*
X20096804Y-30682617D01*
X20096804Y-30682617D02*
X20028947Y-30739760D01*
X20028947Y-30739760D02*
X19893232Y-30796902D01*
X19893232Y-30796902D02*
X19486089Y-30796902D01*
X19486089Y-30796902D02*
X19350375Y-30739760D01*
X19350375Y-30739760D02*
X19282518Y-30682617D01*
X21386090Y-29596902D02*
X21114661Y-29596902D01*
X21114661Y-29596902D02*
X20978947Y-29654045D01*
X20978947Y-29654045D02*
X20911090Y-29711188D01*
X20911090Y-29711188D02*
X20775375Y-29882617D01*
X20775375Y-29882617D02*
X20707518Y-30111188D01*
X20707518Y-30111188D02*
X20707518Y-30568331D01*
X20707518Y-30568331D02*
X20775375Y-30682617D01*
X20775375Y-30682617D02*
X20843232Y-30739760D01*
X20843232Y-30739760D02*
X20978947Y-30796902D01*
X20978947Y-30796902D02*
X21250375Y-30796902D01*
X21250375Y-30796902D02*
X21386090Y-30739760D01*
X21386090Y-30739760D02*
X21453947Y-30682617D01*
X21453947Y-30682617D02*
X21521804Y-30568331D01*
X21521804Y-30568331D02*
X21521804Y-30282617D01*
X21521804Y-30282617D02*
X21453947Y-30168331D01*
X21453947Y-30168331D02*
X21386090Y-30111188D01*
X21386090Y-30111188D02*
X21250375Y-30054045D01*
X21250375Y-30054045D02*
X20978947Y-30054045D01*
X20978947Y-30054045D02*
X20843232Y-30111188D01*
X20843232Y-30111188D02*
X20775375Y-30168331D01*
X20775375Y-30168331D02*
X20707518Y-30282617D01*
X22403947Y-29596902D02*
X22539661Y-29596902D01*
X22539661Y-29596902D02*
X22675375Y-29654045D01*
X22675375Y-29654045D02*
X22743233Y-29711188D01*
X22743233Y-29711188D02*
X22811090Y-29825474D01*
X22811090Y-29825474D02*
X22878947Y-30054045D01*
X22878947Y-30054045D02*
X22878947Y-30339760D01*
X22878947Y-30339760D02*
X22811090Y-30568331D01*
X22811090Y-30568331D02*
X22743233Y-30682617D01*
X22743233Y-30682617D02*
X22675375Y-30739760D01*
X22675375Y-30739760D02*
X22539661Y-30796902D01*
X22539661Y-30796902D02*
X22403947Y-30796902D01*
X22403947Y-30796902D02*
X22268233Y-30739760D01*
X22268233Y-30739760D02*
X22200375Y-30682617D01*
X22200375Y-30682617D02*
X22132518Y-30568331D01*
X22132518Y-30568331D02*
X22064661Y-30339760D01*
X22064661Y-30339760D02*
X22064661Y-30054045D01*
X22064661Y-30054045D02*
X22132518Y-29825474D01*
X22132518Y-29825474D02*
X22200375Y-29711188D01*
X22200375Y-29711188D02*
X22268233Y-29654045D01*
X22268233Y-29654045D02*
X22403947Y-29596902D01*
X25253947Y-30796902D02*
X24575375Y-30796902D01*
X24575375Y-30796902D02*
X24575375Y-29596902D01*
X25728946Y-30796902D02*
X25728946Y-29596902D01*
X25728946Y-29596902D02*
X26271803Y-29596902D01*
X26271803Y-29596902D02*
X26407518Y-29654045D01*
X26407518Y-29654045D02*
X26475375Y-29711188D01*
X26475375Y-29711188D02*
X26543232Y-29825474D01*
X26543232Y-29825474D02*
X26543232Y-29996902D01*
X26543232Y-29996902D02*
X26475375Y-30111188D01*
X26475375Y-30111188D02*
X26407518Y-30168331D01*
X26407518Y-30168331D02*
X26271803Y-30225474D01*
X26271803Y-30225474D02*
X25728946Y-30225474D01*
X28239660Y-30796902D02*
X28239660Y-29596902D01*
X28239660Y-29596902D02*
X29053946Y-30796902D01*
X29053946Y-30796902D02*
X29053946Y-29596902D01*
X30275374Y-30739760D02*
X30139660Y-30796902D01*
X30139660Y-30796902D02*
X29868232Y-30796902D01*
X29868232Y-30796902D02*
X29732517Y-30739760D01*
X29732517Y-30739760D02*
X29664660Y-30625474D01*
X29664660Y-30625474D02*
X29664660Y-30168331D01*
X29664660Y-30168331D02*
X29732517Y-30054045D01*
X29732517Y-30054045D02*
X29868232Y-29996902D01*
X29868232Y-29996902D02*
X30139660Y-29996902D01*
X30139660Y-29996902D02*
X30275374Y-30054045D01*
X30275374Y-30054045D02*
X30343232Y-30168331D01*
X30343232Y-30168331D02*
X30343232Y-30282617D01*
X30343232Y-30282617D02*
X29664660Y-30396902D01*
X31564661Y-30739760D02*
X31428946Y-30796902D01*
X31428946Y-30796902D02*
X31157518Y-30796902D01*
X31157518Y-30796902D02*
X31021803Y-30739760D01*
X31021803Y-30739760D02*
X30953946Y-30682617D01*
X30953946Y-30682617D02*
X30886089Y-30568331D01*
X30886089Y-30568331D02*
X30886089Y-30225474D01*
X30886089Y-30225474D02*
X30953946Y-30111188D01*
X30953946Y-30111188D02*
X31021803Y-30054045D01*
X31021803Y-30054045D02*
X31157518Y-29996902D01*
X31157518Y-29996902D02*
X31428946Y-29996902D01*
X31428946Y-29996902D02*
X31564661Y-30054045D01*
X32175375Y-30796902D02*
X32175375Y-29596902D01*
X32311090Y-30339760D02*
X32718232Y-30796902D01*
X32718232Y-29996902D02*
X32175375Y-30454045D01*
%TO.C,J4*%
X28900000Y-22700000D02*
G75*
G02*
X26000000Y-22700000I-1450000J0D01*
G01*
X26000000Y-22700000D02*
G75*
G02*
X28900000Y-22700000I1450000J0D01*
G01*
%TO.C,J9*%
X21800000Y-26250000D02*
G75*
G02*
X18900000Y-26250000I-1450000J0D01*
G01*
X18900000Y-26250000D02*
G75*
G02*
X21800000Y-26250000I1450000J0D01*
G01*
%TO.C,J5*%
X28900000Y-26250000D02*
G75*
G02*
X26000000Y-26250000I-1450000J0D01*
G01*
X26000000Y-26250000D02*
G75*
G02*
X28900000Y-26250000I1450000J0D01*
G01*
%TO.C,J2*%
X32450000Y-22700000D02*
G75*
G02*
X29550000Y-22700000I-1450000J0D01*
G01*
X29550000Y-22700000D02*
G75*
G02*
X32450000Y-22700000I1450000J0D01*
G01*
%TO.C,J7*%
X25350000Y-26250000D02*
G75*
G02*
X22450000Y-26250000I-1450000J0D01*
G01*
X22450000Y-26250000D02*
G75*
G02*
X25350000Y-26250000I1450000J0D01*
G01*
%TO.C,J3*%
X32450000Y-26250000D02*
G75*
G02*
X29550000Y-26250000I-1450000J0D01*
G01*
X29550000Y-26250000D02*
G75*
G02*
X32450000Y-26250000I1450000J0D01*
G01*
%TO.C,J8*%
X21800000Y-22700000D02*
G75*
G02*
X18900000Y-22700000I-1450000J0D01*
G01*
X18900000Y-22700000D02*
G75*
G02*
X21800000Y-22700000I1450000J0D01*
G01*
%TO.C,J6*%
X25350000Y-22700000D02*
G75*
G02*
X22450000Y-22700000I-1450000J0D01*
G01*
X22450000Y-22700000D02*
G75*
G02*
X25350000Y-22700000I1450000J0D01*
G01*
%TD*%
M02*
